<svg width="23" height="23" viewBox="0 0 23 23" fill="none" xmlns="http://www.w3.org/2000/svg">
<path fill-rule="evenodd" clip-rule="evenodd" d="M7.09496 12.3236L5.55333 11.0903C5.32798 11.7408 5.20557 12.4393 5.20557 13.1663C5.20557 16.6672 8.04358 19.5052 11.5445 19.5052C15.0453 19.5052 17.8833 16.6672 17.8833 13.1663C17.8833 12.4393 17.7609 11.7408 17.5356 11.0903L15.994 12.3236C16.0454 12.5967 16.0722 12.8784 16.0722 13.1663C16.0722 15.667 14.0451 17.6941 11.5445 17.6941C9.04383 17.6941 7.01668 15.667 7.01668 13.1663C7.01668 12.8784 7.04356 12.5967 7.09496 12.3236Z" fill="#E9EDFE"/>
<path d="M11.5444 4.11108L10.9787 3.40396L11.5444 2.95141L12.1101 3.40396L11.5444 4.11108ZM12.4499 12.2611C12.4499 12.7612 12.0445 13.1666 11.5444 13.1666C11.0443 13.1666 10.6388 12.7612 10.6388 12.2611L12.4499 12.2611ZM6.45091 7.02619L10.9787 3.40396L12.1101 4.8182L7.5823 8.44043L6.45091 7.02619ZM12.1101 3.40396L16.6379 7.02619L15.5065 8.44043L10.9787 4.8182L12.1101 3.40396ZM12.4499 4.11108L12.4499 12.2611L10.6388 12.2611L10.6388 4.11108L12.4499 4.11108Z" fill="#E9EDFE"/>
</svg>
