<svg width="22" height="22" viewBox="0 0 22 22" fill="none" xmlns="http://www.w3.org/2000/svg">
<path d="M11.9258 2.71631H8.14877C6.4415 2.71631 5.58786 2.71631 5.05748 3.24669C4.5271 3.77707 4.5271 4.63071 4.5271 6.33798V15.3921C4.5271 17.0994 4.5271 17.953 5.05748 18.4834C5.58786 19.0138 6.4415 19.0138 8.14877 19.0138H13.5813C15.2885 19.0138 16.1422 19.0138 16.6726 18.4834C17.2029 17.953 17.2029 17.0994 17.2029 15.3921V7.99346C17.2029 7.62337 17.2029 7.43833 17.134 7.27194C17.0651 7.10555 16.9342 6.9747 16.6726 6.71301L13.2062 3.24669C12.9445 2.985 12.8137 2.85415 12.6473 2.78523C12.4809 2.71631 12.2959 2.71631 11.9258 2.71631Z" stroke="#E9EDFE" stroke-width="1.81"/>
<path d="M8.14868 11.7705L13.5812 11.7705" stroke="#E9EDFE" stroke-width="1.81" stroke-linecap="round"/>
<path d="M8.14868 15.3921L11.7703 15.3921" stroke="#E9EDFE" stroke-width="1.81" stroke-linecap="round"/>
<path d="M11.7705 2.71631V6.33798C11.7705 7.19161 11.7705 7.61843 12.0357 7.88362C12.3009 8.14881 12.7277 8.14881 13.5813 8.14881H17.203" stroke="#E9EDFE" stroke-width="1.81"/>
</svg>
