<svg width="24" height="24" viewBox="0 0 24 24" fill="none" xmlns="http://www.w3.org/2000/svg">
<path d="M15.6999 4.2002C14.8999 3.0002 13.4999 2.2002 11.9999 2.2002C10.4999 2.2002 9.09995 3.0002 8.29995 4.2002C7.89995 4.1002 7.39995 4.0002 6.99995 4.0002C5.09995 4.0002 3.59995 5.5002 3.59995 7.3002C3.59995 9.1002 5.09995 10.6002 6.99995 10.6002C7.69995 10.6002 8.39995 10.4002 8.99995 9.9002C9.79995 10.6002 10.8999 11.0002 11.9999 11.0002C13.0999 11.0002 14.1999 10.6002 14.9999 9.9002C15.5999 10.3002 16.2999 10.6002 16.9999 10.6002C18.8999 10.6002 20.3999 9.1002 20.3999 7.3002C20.3999 5.5002 18.8999 4.0002 16.9999 4.0002C16.5999 4.0002 16.0999 4.1002 15.6999 4.2002ZM6.99995 8.5002C6.19995 8.5002 5.59995 8.0002 5.59995 7.3002C5.59995 6.6002 6.19995 6.0002 6.99995 6.0002C7.19995 6.0002 7.39995 6.0002 7.49995 6.1002V6.60019C7.49995 6.9002 7.49995 7.10019 7.59995 7.4002V7.60019C7.59995 7.80019 7.69995 8.0002 7.79995 8.2002V8.3002C7.59995 8.5002 7.29995 8.5002 6.99995 8.5002ZM11.9999 9.0002C11.0999 9.0002 10.3999 8.60019 9.89995 7.9002C9.59995 7.5002 9.49995 7.10019 9.49995 6.60019C9.49995 6.4002 9.49995 6.1002 9.59995 5.9002C9.89995 4.9002 10.8999 4.2002 11.9999 4.2002C13.0999 4.2002 14.0999 4.9002 14.3999 5.9002C14.4999 6.1002 14.4999 6.4002 14.4999 6.60019C14.4999 7.0002 14.3999 7.5002 14.0999 7.9002C13.5999 8.60019 12.8999 9.0002 11.9999 9.0002ZM18.3999 7.3002C18.3999 8.0002 17.7999 8.6002 16.9999 8.6002C16.6999 8.6002 16.3999 8.5002 16.1999 8.4002V8.3002C16.2999 8.1002 16.2999 7.9002 16.3999 7.8002C16.3999 7.7002 16.3999 7.70019 16.4999 7.60019C16.4999 7.30019 16.5999 7.1002 16.5999 6.8002V6.3002C16.5999 6.0002 16.7999 6.0002 16.9999 6.0002C17.7999 6.0002 18.3999 6.6002 18.3999 7.3002ZM21.5999 14.0002C21.1999 12.3002 19.6999 11.0002 18.0999 11.0002H15.8999C14.9999 11.0002 14.1999 11.4002 13.4999 12.0002H10.4999C9.79995 11.4002 8.99995 11.0002 8.09995 11.0002H5.89995C4.29995 11.0002 2.79995 12.2002 2.39995 14.0002L2.09995 15.2002C1.89995 15.9002 2.09995 16.7002 2.49995 17.3002C2.89995 17.8002 3.49995 18.1002 4.09995 18.1002V18.2002C3.79995 19.1002 3.99995 20.1002 4.59995 20.9002C5.19995 21.6002 5.99995 22.0002 6.99995 22.0002H16.9999C17.8999 22.0002 18.7999 21.6002 19.2999 20.8002C19.8999 20.0002 20.0999 19.0002 19.7999 18.1002V18.0002C20.3999 18.0002 20.9999 17.7002 21.3999 17.2002C21.7999 16.6002 21.9999 15.9002 21.7999 15.1002L21.5999 14.0002ZM4.09995 16.0002C3.99995 15.9002 3.99995 15.8002 3.99995 15.6002L4.29995 14.4002C4.49995 13.6002 5.19995 13.0002 5.89995 13.0002H6.89995L6.79995 13.1002C6.69995 13.2002 6.59995 13.3002 6.39995 13.4002L6.09995 13.7002L5.79995 14.0002C5.69995 14.1002 5.59995 14.2002 5.49995 14.4002C5.39995 14.5002 5.29995 14.7002 5.29995 14.8002C5.19995 14.9002 5.09995 15.1002 5.09995 15.2002C4.99995 15.3002 4.99995 15.5002 4.89995 15.6002C4.89995 15.7002 4.79995 15.8002 4.79995 15.9002L4.09995 16.0002ZM17.7999 19.6002C17.6999 19.8002 17.3999 20.0002 16.9999 20.0002H6.99995C6.59995 20.0002 6.39995 19.8002 6.29995 19.6002C5.99995 19.4002 5.99995 19.0002 5.99995 18.7002L6.39995 17.3002L6.49995 16.8002C6.99995 15.1002 8.39995 14.0002 9.99995 14.0002H13.9999C15.5999 14.0002 16.9999 15.1002 17.4999 16.8002L17.5999 17.3002L17.9999 18.7002C17.9999 19.0002 17.9999 19.4002 17.7999 19.6002ZM19.8999 16.0002H19.2999C19.2999 15.9002 19.1999 15.8002 19.1999 15.7002C19.0999 15.5002 19.0999 15.4002 18.9999 15.3002C18.8999 15.2002 18.8999 15.0002 18.7999 14.9002C18.6999 14.8002 18.5999 14.6002 18.4999 14.5002L18.1999 14.2002C18.0999 14.1002 17.9999 13.9002 17.8999 13.8002L17.5999 13.5002C17.4999 13.4002 17.2999 13.3002 17.1999 13.2002L17.0999 13.1002H18.0999C18.7999 13.1002 19.4999 13.7002 19.6999 14.5002L19.9999 15.7002C19.9999 15.8002 19.9999 15.9002 19.8999 16.0002Z" fill="#B9B0AB" fill-opacity="0.8"/>
</svg>
