<svg width="24" height="24" viewBox="0 0 24 24" fill="none" xmlns="http://www.w3.org/2000/svg">
<path d="M2.40869 1.09998L2.40862 1.10001C2.11538 1.2214 1.84892 1.39936 1.62447 1.62374C1.40004 1.8481 1.22199 2.11446 1.1005 2.40762L2.40869 1.09998ZM2.40869 1.09998C2.61815 1.0132 2.86551 0.965316 3.22459 0.94081C3.58592 0.916151 4.04183 0.916016 4.6665 0.916016H6.3335C6.95818 0.916016 7.41409 0.916151 7.77542 0.94081C8.13449 0.965316 8.38186 1.0132 8.59132 1.09998L8.59138 1.10001M2.40869 1.09998L8.59138 1.10001M8.59138 1.10001C8.88463 1.2214 9.15108 1.39936 9.37554 1.62374C9.59999 1.84812 9.77805 2.11451 9.89954 2.4077C9.98631 2.61715 10.0342 2.86463 10.0587 3.22384C10.0834 3.5853 10.0835 4.04135 10.0835 4.66602V6.33252C10.0835 6.95719 10.0834 7.41323 10.0587 7.77469C10.0342 8.13389 9.98632 8.38136 9.89955 8.5908C9.65414 9.18293 9.18358 9.65333 8.59137 9.89853L8.59132 9.89855M8.59138 1.10001L8.59132 9.89855M8.59132 9.89855C8.38186 9.98533 8.13449 10.0332 7.77542 10.0577C7.41409 10.0824 6.95818 10.0825 6.3335 10.0825H4.6665C4.04183 10.0825 3.58592 10.0824 3.22459 10.0577C2.86551 10.0332 2.61815 9.98533 2.40869 9.89855L2.40863 9.89853M8.59132 9.89855L2.40863 9.89853M2.40863 9.89853C2.11538 9.77713 1.84892 9.59917 1.62447 9.37479M2.40863 9.89853L1.62447 9.37479M0.941299 3.22403C0.916639 3.58543 0.916504 4.04135 0.916504 4.66602V6.33252C0.916504 6.95719 0.916639 7.41323 0.941299 7.77469C0.965806 8.1339 1.01369 8.38137 1.10046 8.59082L0.941299 3.22403ZM0.941299 3.22403C0.9658 2.86496 1.01368 2.61745 1.10046 2.40772L0.941299 3.22403ZM1.62447 9.37479C1.40002 9.15041 1.22196 8.88402 1.10047 8.59083L1.62447 9.37479Z" stroke="white" stroke-width="0.5"/>
<path d="M2.0575 0.254L2.15298 0.48505C2.4576 0.359171 2.78634 0.303552 3.17939 0.276929L3.17991 0.276893C3.56325 0.250137 4.03877 0.25 4.643 0.25H6.357C6.96114 0.25 7.43638 0.250131 7.82095 0.276418L7.82108 0.276427C8.21361 0.303047 8.54234 0.358657 8.84695 0.48452C9.6022 0.797597 10.2022 1.3978 10.515 2.15316L10.5151 2.15327C10.6413 2.45773 10.6969 2.78632 10.7236 3.17939L10.7236 3.17957C10.7499 3.56362 10.75 4.03884 10.75 4.643V6.357C10.75 6.96114 10.7499 7.43638 10.7236 7.82095L10.7236 7.82108C10.6969 8.21366 10.6413 8.54226 10.5151 8.84673L10.515 8.84681C10.2021 9.60207 9.60207 10.2021 8.84681 10.515L8.84673 10.5151C8.54227 10.6413 8.21368 10.6969 7.8206 10.7236L7.82043 10.7236C7.43638 10.7499 6.96116 10.75 6.357 10.75H4.643C4.03886 10.75 3.56362 10.7499 3.17905 10.7236L3.17892 10.7236C2.78635 10.6969 2.45774 10.6413 2.15327 10.5151L2.15316 10.515C1.3978 10.2022 0.797596 9.6022 0.48452 8.84695C0.358662 8.54235 0.30305 8.21363 0.276429 7.8206L0.276415 7.82041C0.250132 7.43687 0.25 6.96167 0.25 6.3575V4.6435C0.25 4.03936 0.250131 3.56412 0.276418 3.17955L0.276427 3.17942C0.303045 2.78692 0.35865 2.4582 0.484495 2.15361C0.797458 1.39814 1.39769 0.797915 2.15317 0.484968L2.0575 0.254ZM2.0575 0.254C1.24074 0.592329 0.591829 1.24124 0.2535 2.058L7.838 0.027C7.443 0 6.958 0 6.357 0H4.643C4.042 0 3.5565 0 3.1625 0.0275002C2.7565 0.0550002 2.3975 0.1135 2.0575 0.254ZM2.47234 1.25453L2.4725 1.25446C2.65782 1.17786 2.88501 1.13147 3.23594 1.10758L2.47234 1.25453ZM2.47234 1.25453C2.19932 1.3676 1.95125 1.53335 1.7423 1.7423C1.53335 1.95125 1.3676 2.19932 1.25453 2.47234L1.25446 2.4725M2.47234 1.25453L1.25446 2.4725M1.25446 2.4725C1.17778 2.65802 1.13196 2.88535 1.1076 3.23566L1.10758 3.23596M1.25446 2.4725L1.10758 3.23596M1.10758 3.23596C1.0835 3.58849 1.0835 4.03505 1.0835 4.65575M1.10758 3.23596L1.0835 4.65575M1.25453 8.52766L1.25446 8.5275C1.17786 8.34218 1.13147 8.11499 1.10758 7.76406L1.25453 8.52766ZM1.25453 8.52766C1.3676 8.80068 1.53335 9.04875 1.7423 9.2577C1.95125 9.46665 2.19932 9.6324 2.47234 9.74547L2.4725 9.74554M1.25453 8.52766L2.4725 9.74554M2.4725 9.74554C2.65802 9.82222 2.88535 9.86804 3.23566 9.8924L3.23596 9.89242L2.4725 9.74554ZM8.52766 9.74547L8.5275 9.74554C8.34218 9.82214 8.11499 9.86853 7.76406 9.89242C7.76403 9.89242 7.764 9.89242 7.76397 9.89242L7.747 9.643L8.52766 9.74547ZM8.52766 9.74547C8.80068 9.6324 9.04875 9.46665 9.2577 9.2577C9.46665 9.04875 9.6324 8.80068 9.74547 8.52766L9.74554 8.5275M8.52766 9.74547L9.74554 8.5275M9.74554 8.5275C9.82222 8.34198 9.86804 8.11465 9.8924 7.76434L9.89242 7.76404L9.74554 8.5275ZM9.74547 2.47234L9.74554 2.4725C9.82214 2.65782 9.86853 2.88501 9.89242 3.23594C9.89242 3.23597 9.89242 3.236 9.89242 3.23603L9.643 3.253L9.74547 2.47234ZM9.74547 2.47234C9.6324 2.19932 9.46665 1.95125 9.2577 1.7423C9.04875 1.53335 8.80068 1.3676 8.52766 1.25453L8.5275 1.25446M9.74547 2.47234L8.5275 1.25446M8.5275 1.25446C8.34198 1.17778 8.11465 1.13196 7.76434 1.1076L7.76404 1.10758M8.5275 1.25446L7.76404 1.10758M7.76404 1.10758C7.41151 1.0835 6.96495 1.0835 6.34425 1.0835M7.76404 1.10758L6.34425 1.0835M1.0835 4.65575V4.6665M1.0835 4.65575V4.6665M1.0835 4.6665V6.3335M1.0835 4.6665V6.3335M1.0835 6.3335V6.34429M1.0835 6.3335V6.34429M1.0835 6.34429C1.0835 6.9649 1.0835 7.41194 1.10758 7.76397L1.0835 6.34429ZM6.34425 1.0835H6.3335M6.34425 1.0835H6.3335M6.3335 1.0835H4.6665M6.3335 1.0835H4.6665M4.6665 1.0835H4.65571M4.6665 1.0835H4.65571M4.65571 1.0835C4.0351 1.0835 3.58805 1.0835 3.23603 1.10758L4.65571 1.0835Z" stroke="white" stroke-width="0.5"/>
<path d="M2.40869 14.1L2.40862 14.1C2.11538 14.2214 1.84893 14.3994 1.62447 14.6237C1.40004 14.8481 1.22199 15.1145 1.1005 15.4076L2.40869 14.1ZM2.40869 14.1C2.61815 14.0132 2.86551 13.9653 3.22459 13.9408C3.58591 13.9162 4.04183 13.916 4.6665 13.916H6.3335C6.95818 13.916 7.41409 13.9162 7.77542 13.9408C8.13449 13.9653 8.38186 14.0132 8.59132 14.1L8.59138 14.1M2.40869 14.1L8.59138 14.1M8.59138 14.1C8.88463 14.2214 9.15108 14.3994 9.37554 14.6237C9.59999 14.8481 9.77805 15.1145 9.89954 15.4077C9.98631 15.6171 10.0342 15.8646 10.0587 16.2238C10.0834 16.5853 10.0835 17.0413 10.0835 17.666V19.3325C10.0835 19.9572 10.0834 20.4132 10.0587 20.7747C10.0342 21.1339 9.98632 21.3814 9.89955 21.5908C9.65414 22.1829 9.18358 22.6533 8.59137 22.8985L8.59132 22.8986M8.59138 14.1L8.59132 22.8986M8.59132 22.8986C8.38186 22.9853 8.13449 23.0332 7.77542 23.0577C7.41409 23.0824 6.95818 23.0825 6.3335 23.0825H4.6665C4.04183 23.0825 3.58592 23.0824 3.22459 23.0577C2.86551 23.0332 2.61815 22.9853 2.40869 22.8986L2.40863 22.8985M8.59132 22.8986L2.40863 22.8985M2.40863 22.8985C2.11538 22.7771 1.84892 22.5992 1.62447 22.3748M2.40863 22.8985L1.62447 22.3748M0.941299 16.224C0.916639 16.5854 0.916504 17.0413 0.916504 17.666V19.3325C0.916504 19.9572 0.916639 20.4132 0.941299 20.7747C0.965806 21.1339 1.01369 21.3814 1.10046 21.5908L0.941299 16.224ZM0.941299 16.224C0.9658 15.865 1.01368 15.6175 1.10046 15.4077L0.941299 16.224ZM1.62447 22.3748C1.40002 22.1504 1.22196 21.884 1.10047 21.5908L1.62447 22.3748Z" stroke="white" stroke-width="0.5"/>
<path d="M7.82108 13.2764L7.82095 13.2764C7.43638 13.2501 6.96114 13.25 6.357 13.25H4.643C4.03877 13.25 3.56325 13.2501 3.17991 13.2769L3.17939 13.2769C2.78634 13.3036 2.45759 13.3592 2.15298 13.485L2.0575 13.254M7.82108 13.2764L8.84698 23.5155C8.54237 23.6413 8.21365 23.6969 7.8206 23.7236L7.82043 23.7236C7.43638 23.7499 6.96116 23.75 6.357 23.75H4.643C4.03886 23.75 3.56362 23.7499 3.17905 23.7236L3.17892 23.7236C2.78644 23.697 2.45775 23.6414 2.15317 23.5155C1.39774 23.2026 0.797528 22.6024 0.48455 21.847C0.358671 21.5424 0.303052 21.2137 0.276429 20.8206L0.276415 20.8204C0.250132 20.4369 0.25 19.9617 0.25 19.3575V17.6435C0.25 17.0394 0.250131 16.5641 0.276418 16.1795L0.276427 16.1794C0.303045 15.7869 0.35865 15.4582 0.484495 15.1536C0.797458 14.3981 1.39769 13.7979 2.15317 13.485L2.0575 13.254M7.82108 13.2764C8.2136 13.303 8.54233 13.3587 8.84694 13.4845C9.60222 13.7975 10.2022 14.3978 10.515 15.1531L10.5151 15.1533M7.82108 13.2764L10.5151 15.1533M2.0575 13.254C1.24074 13.5923 0.591829 14.2412 0.2535 15.058L6.357 13H4.643C4.042 13 3.5565 13 3.1625 13.0275C2.7565 13.055 2.3975 13.1135 2.0575 13.254ZM10.5151 15.1533C10.6413 15.4577 10.6969 15.7863 10.7236 16.1794L10.7236 16.1796M10.5151 15.1533L10.7236 16.1796M10.7236 16.1796C10.7499 16.5636 10.75 17.0388 10.75 17.643V19.357C10.75 19.9611 10.7499 20.4364 10.7236 20.821L10.7236 20.8211M10.7236 16.1796L10.7236 20.8211M10.7236 20.8211C10.6969 21.2137 10.6413 21.5423 10.5151 21.8467L10.515 21.8469M10.7236 20.8211L10.515 21.8469M10.515 21.8469C10.2022 22.6022 9.60226 23.2024 8.84702 23.5155L10.515 21.8469ZM2.47234 14.2545L2.4725 14.2545C2.65782 14.1779 2.88501 14.1315 3.23594 14.1076L2.47234 14.2545ZM2.47234 14.2545C2.19932 14.3676 1.95125 14.5333 1.7423 14.7423C1.53335 14.9513 1.3676 15.1993 1.25453 15.4723L1.25446 15.4725M2.47234 14.2545L1.25446 15.4725M1.25446 15.4725C1.17778 15.658 1.13196 15.8853 1.1076 16.2357L1.10758 16.236M1.25446 15.4725L1.10758 16.236M1.10758 16.236C1.0835 16.5885 1.0835 17.0351 1.0835 17.6557M1.10758 16.236L1.0835 17.6557M1.25453 21.5277L1.25446 21.5275C1.17786 21.3422 1.13147 21.115 1.10758 20.7641L1.25453 21.5277ZM1.25453 21.5277C1.3676 21.8007 1.53335 22.0487 1.7423 22.2577C1.95125 22.4667 2.19932 22.6324 2.47234 22.7455L2.4725 22.7455M1.25453 21.5277L2.4725 22.7455M2.4725 22.7455C2.65802 22.8222 2.88535 22.868 3.23566 22.8924L3.23596 22.8924L2.4725 22.7455ZM8.52766 22.7455L8.5275 22.7455C8.34218 22.8221 8.11499 22.8685 7.76406 22.8924C7.76403 22.8924 7.764 22.8924 7.76397 22.8924L7.747 22.643L8.52766 22.7455ZM8.52766 22.7455C8.80068 22.6324 9.04875 22.4667 9.2577 22.2577C9.46665 22.0487 9.6324 21.8007 9.74547 21.5277L9.74554 21.5275M8.52766 22.7455L9.74554 21.5275M9.74554 21.5275C9.82222 21.342 9.86804 21.1147 9.8924 20.7643L9.89242 20.764L9.74554 21.5275ZM9.74547 15.4723L9.74554 15.4725C9.82214 15.6578 9.86853 15.885 9.89242 16.2359C9.89242 16.236 9.89242 16.236 9.89242 16.236L9.643 16.253L9.74547 15.4723ZM9.74547 15.4723C9.6324 15.1993 9.46665 14.9513 9.2577 14.7423C9.04875 14.5333 8.80068 14.3676 8.52766 14.2545L8.5275 14.2545M9.74547 15.4723L8.5275 14.2545M8.5275 14.2545C8.34198 14.1778 8.11465 14.132 7.76434 14.1076L7.76404 14.1076M8.5275 14.2545L7.76404 14.1076M7.76404 14.1076C7.4115 14.0835 6.96493 14.0835 6.34421 14.0835M7.76404 14.1076L6.34421 14.0835M1.0835 17.6557V17.6665M1.0835 17.6557V17.6665M1.0835 17.6665V19.3335M1.0835 17.6665V19.3335M1.0835 19.3335V19.3443M1.0835 19.3335V19.3443M1.0835 19.3443C1.0835 19.9649 1.0835 20.4119 1.10758 20.764L1.0835 19.3443ZM6.34421 14.0835H6.3335M6.34421 14.0835H6.3335M6.3335 14.0835H4.6665M6.3335 14.0835H4.6665M4.6665 14.0835H4.65574M4.6665 14.0835H4.65574M4.65574 14.0835C4.03511 14.0835 3.58806 14.0835 3.23603 14.1076L4.65574 14.0835Z" stroke="white" stroke-width="0.5"/>
<path d="M15.4087 1.09998L15.4086 1.10001C15.1154 1.2214 14.8489 1.39936 14.6245 1.62374C14.4 1.8481 14.222 2.11446 14.1005 2.40762L15.4087 1.09998ZM15.4087 1.09998C15.6181 1.0132 15.8655 0.965316 16.2246 0.94081C16.5859 0.916151 17.0418 0.916016 17.6665 0.916016H19.3335C19.9582 0.916016 20.4141 0.916151 20.7754 0.94081C21.1345 0.965316 21.3819 1.0132 21.5913 1.09998L21.5914 1.10001M15.4087 1.09998L21.5914 1.10001M21.5914 1.10001C21.8846 1.2214 22.1511 1.39936 22.3755 1.62374C22.6 1.84812 22.778 2.11451 22.8995 2.4077C22.9863 2.61715 23.0342 2.86463 23.0587 3.22384C23.0834 3.5853 23.0835 4.04135 23.0835 4.66602V6.33252C23.0835 6.95719 23.0834 7.41323 23.0587 7.77469C23.0342 8.13389 22.9863 8.38136 22.8996 8.5908C22.6541 9.18293 22.1836 9.65333 21.5914 9.89853L21.5913 9.89855M21.5914 1.10001L21.5913 9.89855M21.5913 9.89855C21.3819 9.98533 21.1345 10.0332 20.7754 10.0577C20.4141 10.0824 19.9582 10.0825 19.3335 10.0825H17.6665C17.0418 10.0825 16.5859 10.0824 16.2246 10.0577C15.8655 10.0332 15.6181 9.98533 15.4087 9.89855L15.4086 9.89853M21.5913 9.89855L15.4086 9.89853M15.4086 9.89853C14.8164 9.65333 14.3459 9.18294 14.1005 8.59083L15.4086 9.89853ZM13.9413 3.22403C13.9166 3.58543 13.9165 4.04135 13.9165 4.66602V6.33252C13.9165 6.95719 13.9166 7.41323 13.9413 7.77469C13.9658 8.13389 14.0137 8.38136 14.1005 8.5908L13.9413 3.22403ZM13.9413 3.22403C13.9658 2.86496 14.0137 2.61745 14.1005 2.40772L13.9413 3.22403Z" stroke="white" stroke-width="0.5"/>
<path d="M20.8211 0.276427L20.821 0.276418C20.4364 0.250131 19.9611 0.25 19.357 0.25H17.643C17.0388 0.25 16.5633 0.250137 16.1799 0.276893L16.1794 0.276929C15.7863 0.303552 15.4576 0.359171 15.153 0.48505L15.0575 0.254M20.8211 0.276427L21.847 0.48455C22.6024 0.797528 23.2026 1.39774 23.5155 2.15317C23.6414 2.45774 23.697 2.78642 23.7236 3.17939L23.7236 3.17957C23.7499 3.56362 23.75 4.03884 23.75 4.643V6.357C23.75 6.96114 23.7499 7.43638 23.7236 7.82095L23.7236 7.82108C23.6969 8.21364 23.6413 8.54239 23.5155 8.84702C23.2024 9.60226 22.6022 10.2022 21.8469 10.515L21.8467 10.5151C21.5423 10.6413 21.2137 10.6969 20.8206 10.7236L20.8204 10.7236C20.4364 10.7499 19.9612 10.75 19.357 10.75H17.643C17.0389 10.75 16.5636 10.7499 16.179 10.7236L16.1789 10.7236C15.7863 10.6969 15.4577 10.6413 15.1533 10.5151L15.1531 10.515C14.3978 10.2022 13.7975 9.60222 13.4845 8.84693C13.3587 8.54234 13.303 8.21363 13.2764 7.8206L13.2764 7.82041C13.2501 7.43687 13.25 6.96167 13.25 6.3575V4.6435C13.25 4.03936 13.2501 3.56412 13.2764 3.17955L13.2764 3.17942C13.303 2.78692 13.3586 2.4582 13.4845 2.15361C13.7975 1.39814 14.3977 0.797915 15.1532 0.484968L15.0575 0.254M20.8211 0.276427C21.2136 0.303043 21.5423 0.358642 21.8468 0.484468L20.8211 0.276427ZM15.0575 0.254C14.2407 0.592329 13.5918 1.24124 13.2535 2.058L19.357 0H17.643C17.042 0 16.5565 0 16.1625 0.0275002C15.7565 0.0550002 15.3975 0.1135 15.0575 0.254ZM15.4723 1.25453L15.4725 1.25446C15.6578 1.17786 15.885 1.13147 16.2359 1.10758L15.4723 1.25453ZM15.4723 1.25453C15.1993 1.3676 14.9513 1.53335 14.7423 1.7423C14.5333 1.95125 14.3676 2.19932 14.2545 2.47234L14.2545 2.4725M15.4723 1.25453L14.2545 2.4725M14.2545 2.4725C14.1778 2.65802 14.132 2.88535 14.1076 3.23566L14.1076 3.23596M14.2545 2.4725L14.1076 3.23596M14.1076 3.23596C14.0835 3.5885 14.0835 4.03507 14.0835 4.65579M14.1076 3.23596L14.0835 4.65579M14.2545 8.52766L14.2545 8.5275C14.1779 8.34218 14.1315 8.11499 14.1076 7.76406L14.2545 8.52766ZM14.2545 8.52766C14.3676 8.80068 14.5333 9.04875 14.7423 9.2577C14.9513 9.46665 15.1993 9.6324 15.4723 9.74547L15.4725 9.74554M14.2545 8.52766L15.4725 9.74554M15.4725 9.74554C15.658 9.82222 15.8853 9.86804 16.2357 9.8924L16.236 9.89242L15.4725 9.74554ZM21.5277 9.74547L21.5275 9.74554C21.3422 9.82214 21.115 9.86853 20.7641 9.89242C20.764 9.89242 20.764 9.89242 20.764 9.89242L20.747 9.643L21.5277 9.74547ZM21.5277 9.74547C21.8007 9.6324 22.0487 9.46665 22.2577 9.2577C22.4667 9.04875 22.6324 8.80068 22.7455 8.52766L22.7455 8.5275M21.5277 9.74547L22.7455 8.5275M22.7455 8.5275C22.8222 8.34198 22.868 8.11465 22.8924 7.76434L22.8924 7.76404L22.7455 8.5275ZM22.7455 2.47234L22.7455 2.4725C22.8221 2.65782 22.8685 2.88501 22.8924 3.23594C22.8924 3.23597 22.8924 3.236 22.8924 3.23603L22.643 3.253L22.7455 2.47234ZM22.7455 2.47234C22.6324 2.19932 22.4667 1.95125 22.2577 1.7423C22.0487 1.53335 21.8007 1.3676 21.5277 1.25453L21.5275 1.25446M22.7455 2.47234L21.5275 1.25446M21.5275 1.25446C21.342 1.17778 21.1147 1.13196 20.7643 1.1076L20.764 1.10758M21.5275 1.25446L20.764 1.10758M20.764 1.10758C20.4115 1.0835 19.9649 1.0835 19.3443 1.0835M20.764 1.10758L19.3443 1.0835M14.0835 4.65579V4.6665M14.0835 4.65579V4.6665M14.0835 4.6665V6.3335M14.0835 4.6665V6.3335M14.0835 6.3335V6.34426M14.0835 6.3335V6.34426M14.0835 6.34426C14.0835 6.96489 14.0835 7.41194 14.1076 7.76397L14.0835 6.34426ZM19.3443 1.0835H19.3335M19.3443 1.0835H19.3335M19.3335 1.0835H17.6665M19.3335 1.0835H17.6665M17.6665 1.0835H17.6557M17.6665 1.0835H17.6557M17.6557 1.0835C17.0351 1.0835 16.5881 1.0835 16.236 1.10758L17.6557 1.0835Z" stroke="white" stroke-width="0.5"/>
<path d="M15.4087 14.1L15.4086 14.1C15.1154 14.2214 14.8489 14.3994 14.6245 14.6237C14.4 14.8481 14.222 15.1145 14.1005 15.4076L15.4087 14.1ZM15.4087 14.1C15.6181 14.0132 15.8655 13.9653 16.2246 13.9408C16.5859 13.9162 17.0418 13.916 17.6665 13.916H19.3335C19.9582 13.916 20.4141 13.9162 20.7754 13.9408C21.1345 13.9653 21.3819 14.0132 21.5913 14.1L21.5914 14.1M15.4087 14.1L21.5914 14.1M21.5914 14.1C21.8846 14.2214 22.1511 14.3994 22.3755 14.6237C22.6 14.8481 22.778 15.1145 22.8995 15.4077C22.9863 15.6171 23.0342 15.8646 23.0587 16.2238C23.0834 16.5853 23.0835 17.0413 23.0835 17.666V19.3325C23.0835 19.9572 23.0834 20.4132 23.0587 20.7747C23.0342 21.1339 22.9863 21.3814 22.8996 21.5908C22.6541 22.1829 22.1836 22.6533 21.5914 22.8985L21.5913 22.8986M21.5914 14.1L21.5913 22.8986M21.5913 22.8986C21.3819 22.9853 21.1345 23.0332 20.7754 23.0577C20.4141 23.0824 19.9582 23.0825 19.3335 23.0825H17.6665C17.0418 23.0825 16.5859 23.0824 16.2246 23.0577C15.8655 23.0332 15.6181 22.9853 15.4087 22.8986L15.4086 22.8985M21.5913 22.8986L15.4086 22.8985M15.4086 22.8985C14.8164 22.6533 14.3459 22.1829 14.1005 21.5908L15.4086 22.8985ZM13.9413 16.224C13.9166 16.5854 13.9165 17.0413 13.9165 17.666V19.3325C13.9165 19.9572 13.9166 20.4132 13.9413 20.7747C13.9658 21.1339 14.0137 21.3814 14.1005 21.5908L13.9413 16.224ZM13.9413 16.224C13.9658 15.865 14.0137 15.6175 14.1005 15.4077L13.9413 16.224Z" stroke="white" stroke-width="0.5"/>
<path d="M20.8211 13.2764L20.821 13.2764C20.4364 13.2501 19.9611 13.25 19.357 13.25H17.643C17.0388 13.25 16.5633 13.2501 16.1799 13.2769L16.1794 13.2769C15.7864 13.3035 15.4577 13.3591 15.1532 13.485C14.7791 13.6399 14.4392 13.867 14.1528 14.1533C13.8665 14.4396 13.6394 14.7796 13.4845 15.1536L20.8211 13.2764ZM20.8211 13.2764C21.2136 13.303 21.5423 13.3586 21.8468 13.4845L20.8211 13.2764ZM23.7236 16.1796L23.7236 16.1794C23.697 15.7864 23.6414 15.4577 23.5155 15.1532C23.3606 14.7791 23.1335 14.4392 22.8472 14.1528C22.5609 13.8666 22.221 13.6395 21.847 13.4845L23.7236 16.1796ZM23.7236 16.1796C23.7499 16.5636 23.75 17.0388 23.75 17.643V19.357C23.75 19.9611 23.7499 20.4364 23.7236 20.821L23.7236 20.8211M23.7236 16.1796L23.7236 20.8211M23.7236 20.8211C23.697 21.2136 23.6414 21.5423 23.5155 21.8468C23.3606 22.2209 23.1335 22.5608 22.8472 22.8472C22.5608 23.1335 22.2209 23.3606 21.8468 23.5155C21.5423 23.6414 21.2136 23.697 20.8206 23.7236L20.8204 23.7236M23.7236 20.8211L20.8204 23.7236M20.8204 23.7236C20.4364 23.7499 19.9612 23.75 19.357 23.75H17.643C17.0389 23.75 16.5636 23.7499 16.179 23.7236L16.1789 23.7236C15.7864 23.697 15.4577 23.6414 15.1532 23.5155M20.8204 23.7236L15.1532 23.5155M15.1532 23.5155C14.7791 23.3606 14.4392 23.1335 14.1528 22.8472C13.8666 22.5609 13.6395 22.221 13.4845 21.847C13.3587 21.5424 13.3031 21.2137 13.2764 20.8206L13.2764 20.8204M15.1532 23.5155L13.2764 20.8204M13.2764 20.8204C13.2501 20.4369 13.25 19.9617 13.25 19.3575V17.6435C13.25 17.0394 13.2501 16.5641 13.2764 16.1795L13.2764 16.1794M13.2764 20.8204L13.2764 16.1794M13.2764 16.1794C13.303 15.7869 13.3586 15.4582 13.4845 15.1537L13.2764 16.1794ZM15.4723 14.2545L15.4725 14.2545C15.6578 14.1779 15.885 14.1315 16.2359 14.1076L15.4723 14.2545ZM15.4723 14.2545C15.1993 14.3676 14.9513 14.5333 14.7423 14.7423C14.5333 14.9513 14.3676 15.1993 14.2545 15.4723L14.2545 15.4725M15.4723 14.2545L14.2545 15.4725M14.2545 15.4725C14.1778 15.658 14.132 15.8853 14.1076 16.2357L14.1076 16.236M14.2545 15.4725L14.1076 16.236M14.1076 16.236C14.0835 16.5885 14.0835 17.0351 14.0835 17.6558M14.1076 16.236L14.0835 17.6558M14.2545 21.5277L14.2545 21.5275C14.1779 21.3422 14.1315 21.115 14.1076 20.7641L14.2545 21.5277ZM14.2545 21.5277C14.3676 21.8007 14.5333 22.0487 14.7423 22.2577C14.9513 22.4667 15.1993 22.6324 15.4723 22.7455L15.4725 22.7455M14.2545 21.5277L15.4725 22.7455M15.4725 22.7455C15.658 22.8222 15.8853 22.868 16.2357 22.8924L16.236 22.8924L15.4725 22.7455ZM21.5277 22.7455L21.5275 22.7455C21.3422 22.8221 21.115 22.8685 20.7641 22.8924C20.764 22.8924 20.764 22.8924 20.764 22.8924L20.747 22.643L21.5277 22.7455ZM21.5277 22.7455C21.8007 22.6324 22.0487 22.4667 22.2577 22.2577C22.4667 22.0487 22.6324 21.8007 22.7455 21.5277L22.7455 21.5275M21.5277 22.7455L22.7455 21.5275M22.7455 21.5275C22.8222 21.342 22.868 21.1147 22.8924 20.7643L22.8924 20.764L22.7455 21.5275ZM22.7455 15.4723L22.7455 15.4725C22.8221 15.6578 22.8685 15.885 22.8924 16.2359C22.8924 16.236 22.8924 16.236 22.8924 16.236L22.643 16.253L22.7455 15.4723ZM22.7455 15.4723C22.6324 15.1993 22.4667 14.9513 22.2577 14.7423C22.0487 14.5333 21.8007 14.3676 21.5277 14.2545L21.5275 14.2545M22.7455 15.4723L21.5275 14.2545M21.5275 14.2545C21.342 14.1778 21.1147 14.132 20.7643 14.1076L20.764 14.1076M21.5275 14.2545L20.764 14.1076M20.764 14.1076C20.4115 14.0835 19.9649 14.0835 19.3442 14.0835M20.764 14.1076L19.3442 14.0835M14.0835 17.6558V17.6665M14.0835 17.6558V17.6665M14.0835 17.6665V19.3335M14.0835 17.6665V19.3335M14.0835 19.3335V19.3443M14.0835 19.3335V19.3443M14.0835 19.3443C14.0835 19.9649 14.0835 20.4119 14.1076 20.764L14.0835 19.3443ZM19.3442 14.0835H19.3335M19.3442 14.0835H19.3335M19.3335 14.0835H17.6665M19.3335 14.0835H17.6665M17.6665 14.0835H17.6557M17.6665 14.0835H17.6557M17.6557 14.0835C17.0351 14.0835 16.5881 14.0835 16.236 14.1076L17.6557 14.0835Z" stroke="white" stroke-width="0.5"/>
</svg>
