<svg width="16" height="16" viewBox="0 0 16 16" fill="none" xmlns="http://www.w3.org/2000/svg">
<path d="M10.6668 5.33333V4.66667C10.6668 3.19391 9.47292 2 8.00016 2V2C6.5274 2 5.3335 3.19391 5.3335 4.66667V5.33333" stroke="#222222" stroke-width="1.33333" stroke-linecap="round"/>
<path d="M2 8.66675C2 6.78113 2 5.83832 2.58579 5.25253C3.17157 4.66675 4.11438 4.66675 6 4.66675H10C11.8856 4.66675 12.8284 4.66675 13.4142 5.25253C14 5.83832 14 6.78113 14 8.66675V9.33341C14 11.8476 14 13.1047 13.219 13.8857C12.4379 14.6667 11.1808 14.6667 8.66667 14.6667H7.33333C4.81918 14.6667 3.5621 14.6667 2.78105 13.8857C2 13.1047 2 11.8476 2 9.33341V8.66675Z" fill="#222222"/>
</svg>
