<svg width="20" height="26" viewBox="0 0 20 26" fill="none" xmlns="http://www.w3.org/2000/svg">
<path d="M17.3335 0H2.6665C1.9593 0 1.28107 0.279289 0.781 0.776428C0.280934 1.27357 4.68822e-08 1.94783 4.68822e-08 2.65089V22.5338C-6.56219e-05 22.882 0.068857 23.2267 0.202832 23.5484C0.336807 23.8701 0.533209 24.1624 0.780823 24.4086C1.02844 24.6548 1.32241 24.8501 1.64596 24.9833C1.96951 25.1166 2.31629 25.1852 2.6665 25.1852H17.3335C17.6837 25.1852 18.0305 25.1166 18.354 24.9833C18.6776 24.8501 18.9716 24.6548 19.2192 24.4086C19.4668 24.1624 19.6632 23.8701 19.7972 23.5484C19.9311 23.2267 20.0001 22.882 20 22.5338V2.65139C20 1.94833 19.7191 1.27406 19.219 0.776924C18.7189 0.279786 18.0407 0 17.3335 0Z" fill="#FFDDDD"/>
<path fill-rule="evenodd" clip-rule="evenodd" d="M15.0363 9.06917C14.7907 9.31039 14.7907 9.70115 15.0363 9.94237L17.1099 11.9749H7.29624C7.12922 11.9749 6.96905 12.0399 6.85095 12.1557C6.73285 12.2715 6.6665 12.4285 6.6665 12.5923C6.6665 12.756 6.73285 12.9131 6.85095 13.0288C6.96905 13.1446 7.12922 13.2097 7.29624 13.2097H17.1094L15.0363 15.2422C14.9778 15.2995 14.9314 15.3675 14.8998 15.4424C14.8681 15.5173 14.8518 15.5976 14.8518 15.6786C14.8517 15.7597 14.868 15.84 14.8996 15.9149C14.9313 15.9898 14.9776 16.0578 15.0361 16.1152C15.0945 16.1725 15.1639 16.218 15.2403 16.249C15.3167 16.2801 15.3985 16.2961 15.4812 16.2961C15.5639 16.2961 15.6458 16.2802 15.7222 16.2492C15.7986 16.2182 15.868 16.1727 15.9265 16.1154L19.0749 13.0291C19.3205 12.7884 19.3205 12.3971 19.0749 12.1559L15.9265 9.06963C15.868 9.01226 15.7986 8.96675 15.7222 8.9357C15.6458 8.90465 15.5639 8.88867 15.4812 8.88867C15.3984 8.88867 15.3165 8.90465 15.2401 8.9357C15.1637 8.96675 15.0943 9.01226 15.0358 9.06963L15.0363 9.06917Z" fill="#EE3838"/>
</svg>
