<svg width="24" height="20" viewBox="0 0 24 20" fill="none" xmlns="http://www.w3.org/2000/svg">
<path d="M11.5431 0.000414555C9.49242 0.000723766 7.81566 1.6813 7.81536 3.73209C7.81504 5.78287 9.49043 7.46209 11.5411 7.46178C13.5917 7.46147 15.2724 5.78186 15.2727 3.73108C15.2731 1.6803 13.5937 0.000105345 11.5431 0.000414555Z" fill="#345AFB"/>
<path d="M7.51725 16.5139C7.43713 16.4533 7.34585 16.4091 7.24863 16.3839C7.15141 16.3586 7.05015 16.3528 6.95068 16.3668C6.85121 16.3807 6.75548 16.4142 6.66896 16.4652C6.58244 16.5162 6.50684 16.5838 6.44649 16.6641C6.3859 16.7442 6.34172 16.8355 6.31649 16.9327C6.29125 17.03 6.28544 17.1312 6.2994 17.2307C6.31336 17.3302 6.34682 17.4259 6.39785 17.5124C6.44888 17.5989 6.51648 17.6745 6.59678 17.7349C6.86553 17.9378 7.14673 18.1225 7.43836 18.2909C10.2906 19.9377 13.8557 19.719 16.4854 17.7349C16.5657 17.6745 16.6332 17.5989 16.6843 17.5124C16.7353 17.4259 16.7688 17.3302 16.7827 17.2307C16.7967 17.1312 16.7909 17.03 16.7656 16.9327C16.7404 16.8355 16.6962 16.7442 16.6356 16.6641C16.5138 16.503 16.3331 16.3968 16.1332 16.3686C15.9332 16.3405 15.7302 16.3927 15.5686 16.5139C13.4248 18.1314 10.5259 18.3108 8.20105 16.9685C7.96368 16.8315 7.736 16.6791 7.51725 16.5139Z" fill="#345AFB"/>
<path d="M14.1599 3.61204C14.0669 3.64957 13.9822 3.70503 13.9107 3.7753C13.8391 3.84557 13.7821 3.92926 13.7429 4.02156C13.7034 4.11404 13.6826 4.2134 13.6817 4.31394C13.6807 4.41448 13.6996 4.51422 13.7373 4.60743C13.775 4.70064 13.8308 4.78549 13.9014 4.8571C13.972 4.9287 14.056 4.98566 14.1487 5.0247C14.4018 5.13184 14.647 5.25165 14.885 5.38913C17.2108 6.73193 18.5063 9.33149 18.1762 11.9978C18.1637 12.0975 18.171 12.1987 18.1977 12.2955C18.2243 12.3924 18.2699 12.4831 18.3317 12.5623C18.3934 12.6415 18.4703 12.7078 18.5577 12.7572C18.6451 12.8067 18.7415 12.8385 18.8412 12.8506C19.042 12.8748 19.2441 12.8184 19.4033 12.6937C19.5625 12.5691 19.6657 12.3863 19.6903 12.1856C20.0952 8.91516 18.5048 5.71403 15.6515 4.06665C15.359 3.89775 15.0533 3.74741 14.7423 3.6158C14.5563 3.53762 14.3469 3.53633 14.1599 3.61204Z" fill="#345AFB"/>
<path d="M8.92252 3.61595C8.73502 3.54146 8.52565 3.54422 8.34018 3.62364C6.6988 4.32023 5.32826 5.5318 4.4366 7.0762C3.5436 8.62292 3.17662 10.4172 3.39589 12.1895C3.40807 12.2893 3.43981 12.3856 3.48929 12.4731C3.53878 12.5605 3.60504 12.6373 3.68427 12.6991C3.7635 12.7609 3.85415 12.8064 3.95101 12.8331C4.04788 12.8598 4.14906 12.8671 4.24874 12.8545C4.34848 12.8424 4.44482 12.8106 4.53226 12.7612C4.6197 12.7117 4.69652 12.6454 4.7583 12.5662C4.82008 12.4869 4.86561 12.3963 4.89229 12.2994C4.91896 12.2026 4.92625 12.1014 4.91374 12.0017C4.73523 10.5587 5.03197 9.09825 5.75908 7.83888C6.4851 6.58139 7.59744 5.59589 8.93379 5.0286C9.02645 4.98956 9.11049 4.9326 9.18107 4.861C9.25165 4.78939 9.30739 4.70454 9.34509 4.61133C9.38279 4.51812 9.40171 4.41838 9.40076 4.31784C9.39981 4.2173 9.37901 4.11794 9.33956 4.02546C9.30035 3.93316 9.24334 3.84947 9.17178 3.7792C9.10022 3.70893 9.01553 3.65347 8.92252 3.61595Z" fill="#345AFB"/>
<path d="M18.0043 11.1755C16.7125 11.1757 15.4516 11.8461 14.7626 13.0394C13.7372 14.8155 14.3496 17.1086 16.1255 18.1339C17.9013 19.1592 20.1966 18.5442 21.222 16.7681C22.2474 14.992 21.632 12.6968 19.8562 11.6716C19.2735 11.3351 18.6351 11.1754 18.0043 11.1755Z" fill="#345AFB"/>
<path d="M5.08289 11.1787C4.45214 11.1787 3.81368 11.3382 3.23097 11.6747C1.45509 12.7004 0.840097 14.9962 1.86515 16.7723C2.8902 18.5483 5.18281 19.1598 6.95868 18.1341C8.73456 17.1085 9.34857 14.8186 8.32351 13.0426C7.63481 11.8493 6.37446 11.1788 5.08289 11.1787Z" fill="#345AFB"/>
</svg>
