<svg width="40" height="40" viewBox="0 0 40 40" fill="none" xmlns="http://www.w3.org/2000/svg">
<circle cx="20" cy="20" r="20" fill="#345AFB"/>
<path d="M19.6216 28.0435L15.6772 21.1565V20.2382H16.1364C16.8738 20.2382 17.4929 20.1687 17.9938 20.0295C18.5085 19.8904 18.912 19.6608 19.2042 19.3408C19.4964 19.0208 19.6703 18.5826 19.7259 18.0261H15.6772V16.6904H19.7051C19.6077 16.1756 19.4129 15.7582 19.1207 15.4382C18.8285 15.1043 18.432 14.8608 17.9311 14.7078C17.4442 14.5548 16.8459 14.4782 16.1364 14.4782H15.6772V13.1426H24.3172V14.4782H20.3729C20.6929 14.7426 20.9572 15.0556 21.1659 15.4174C21.3746 15.7791 21.5068 16.2035 21.5624 16.6904H24.3172V18.0261H21.6042C21.5068 19.0417 21.1172 19.8348 20.4355 20.4052C19.7677 20.9617 18.8772 21.3165 17.7642 21.4695L21.7503 28.0435H19.6216Z" fill="#E9EDFE"/>
</svg>
