<svg width="40" height="40" viewBox="0 0 40 40" fill="none" xmlns="http://www.w3.org/2000/svg">
<circle cx="20" cy="20" r="20" fill="#345AFB"/>
<path d="M13.5562 28L11.2882 24.04V23.512H11.5522C11.9762 23.512 12.3322 23.472 12.6202 23.392C12.9162 23.312 13.1482 23.18 13.3162 22.996C13.4842 22.812 13.5842 22.56 13.6162 22.24H11.2882V21.472H13.6042C13.5482 21.176 13.4362 20.936 13.2682 20.752C13.1002 20.56 12.8722 20.42 12.5842 20.332C12.3042 20.244 11.9602 20.2 11.5522 20.2H11.2882V19.432H16.2562V20.2H13.9882C14.1722 20.352 14.3242 20.532 14.4442 20.74C14.5642 20.948 14.6402 21.192 14.6722 21.472H16.2562V22.24H14.6962C14.6402 22.824 14.4162 23.28 14.0242 23.608C13.6402 23.928 13.1282 24.132 12.4882 24.22L14.7802 28H13.5562ZM23.4474 28.2087C20.1291 28.2087 18.1674 25.3287 18.1674 20.6957C18.1674 16.0626 20.1291 13.1826 23.4474 13.1826C26.7448 13.1826 28.7065 16.0626 28.7065 20.6957C28.7065 25.3287 26.7448 28.2087 23.4474 28.2087ZM23.4474 26.6852C25.743 26.6852 27.0995 24.5565 27.0995 20.6957C27.0995 16.8348 25.743 14.7061 23.4474 14.7061C21.1308 14.7061 19.7952 16.8348 19.7952 20.6957C19.7952 24.5565 21.1308 26.6852 23.4474 26.6852Z" fill="#E9EDFE"/>
</svg>
