<svg width="14" height="14" viewBox="0 0 16 19" fill="none" xmlns="http://www.w3.org/2000/svg">
<path d="M7.57878 9.556C10.2176 9.556 12.3568 7.41682 12.3568 4.778C12.3568 2.13918 10.2176 0 7.57878 0C4.93996 0 2.80078 2.13918 2.80078 4.778C2.80078 7.41682 4.93996 9.556 7.57878 9.556Z" fill="#345AFB"/>
<path fill-rule="evenodd" clip-rule="evenodd" d="M1.57794e-05 15.2016C-0.00125183 14.8657 0.073869 14.5339 0.219712 14.2313C0.677378 13.316 1.968 12.8308 3.03893 12.6112C3.81129 12.4463 4.59432 12.3362 5.38218 12.2816C6.84085 12.1535 8.30795 12.1535 9.76662 12.2816C10.5544 12.3369 11.3374 12.447 12.1099 12.6112C13.1808 12.8308 14.4714 13.2702 14.9291 14.2313C15.2224 14.8481 15.2224 15.5642 14.9291 16.181C14.4714 17.1421 13.1808 17.5814 12.1099 17.7919C11.3384 17.9636 10.5551 18.0768 9.76662 18.1306C8.57938 18.2313 7.3866 18.2496 6.19683 18.1855C5.92223 18.1855 5.65678 18.1855 5.38218 18.1306C4.59665 18.0775 3.81633 17.9642 3.04809 17.7919C1.968 17.5814 0.686531 17.1421 0.219712 16.181C0.074614 15.8749 -0.000432169 15.5403 1.57794e-05 15.2016Z" fill="#345AFB"/>
</svg>
