<svg width="32" height="32" viewBox="0 0 32 32" fill="none" xmlns="http://www.w3.org/2000/svg">
<circle cx="16" cy="16" r="16" fill="#345AFB"/>
<path fill-rule="evenodd" clip-rule="evenodd" d="M20.1638 15.0367L21.6006 13.5999C22.0368 13.1637 22.2549 12.9456 22.3715 12.7103C22.5933 12.2627 22.5933 11.7371 22.3715 11.2895C22.2549 11.0542 22.0368 10.8361 21.6006 10.3999L21.6006 10.3999C21.1644 9.9637 20.9463 9.7456 20.711 9.62902C20.2634 9.40719 19.7378 9.40719 19.2902 9.62902C19.0549 9.74561 18.8368 9.9637 18.4006 10.3999L16.9457 11.8548C17.7168 13.1753 18.8257 14.2758 20.1638 15.0367ZM15.7821 13.0184L10.2857 18.5148C9.94565 18.8548 9.77563 19.0249 9.66384 19.2338C9.55205 19.4426 9.5049 19.6784 9.41059 20.15L8.91827 22.6116C8.86505 22.8776 8.83844 23.0107 8.91413 23.0864C8.98982 23.1621 9.12286 23.1355 9.38895 23.0822L11.8505 22.5899C12.3221 22.4956 12.5579 22.4484 12.7668 22.3367C12.9756 22.2249 13.1457 22.0548 13.4857 21.7148L18.9972 16.2033C17.6999 15.3908 16.6025 14.3009 15.7821 13.0184Z" fill="white"/>
</svg>
