<svg width="40" height="40" viewBox="0 0 40 40" fill="none" xmlns="http://www.w3.org/2000/svg">
<circle cx="20" cy="20" r="20" fill="#345AFB"/>
<path d="M19.4719 16.1461C19.4719 17.8574 18.3032 19.1304 16.6963 19.1304C15.0684 19.1304 13.8997 17.8574 13.8997 16.1461C13.8997 14.4348 15.0684 13.1826 16.6963 13.1826C18.3032 13.1826 19.4719 14.4348 19.4719 16.1461ZM24.2302 13.3913H25.5032L15.7989 28H14.5258L24.2302 13.3913ZM18.3867 16.1461C18.3867 15.0191 17.7189 14.2052 16.6963 14.2052C15.6528 14.2052 14.9849 15.0191 14.9849 16.1461C14.9849 17.273 15.6528 18.087 16.6963 18.087C17.7189 18.087 18.3867 17.273 18.3867 16.1461ZM26.1084 25.2243C26.1084 26.9565 24.9397 28.2087 23.3328 28.2087C21.7049 28.2087 20.5363 26.9565 20.5363 25.2243C20.5363 23.513 21.7049 22.2609 23.3328 22.2609C24.9397 22.2609 26.1084 23.513 26.1084 25.2243ZM25.0232 25.2243C25.0232 24.0974 24.3554 23.2835 23.3328 23.2835C22.2893 23.2835 21.6215 24.0974 21.6215 25.2243C21.6215 26.3722 22.2893 27.1861 23.3328 27.1861C24.3554 27.1861 25.0232 26.3722 25.0232 25.2243Z" fill="#E9EDFE"/>
</svg>
