<svg width="32" height="32" viewBox="0 0 32 32" fill="none" xmlns="http://www.w3.org/2000/svg">
<path d="M14.3194 26.7306L14.9778 25.9404L14.3194 26.7306C15.2928 27.5418 16.7068 27.5418 17.6803 26.7306L21.9917 23.1378C23.964 21.4942 25.2382 19.1629 25.5567 16.6154L26.3095 10.5929C26.4546 9.4321 25.814 8.31537 24.7388 7.85455L17.0339 4.55245C16.3736 4.26946 15.6261 4.26946 14.9658 4.55245L7.2609 7.85455C6.18565 8.31537 5.5451 9.4321 5.6902 10.5929L6.44302 16.6154C6.76145 19.1629 8.03571 21.4942 10.008 23.1378L14.3194 26.7306Z" stroke="#33363F" stroke-width="2.25" stroke-linecap="round"/>
<path d="M12.0002 16L15.3533 19.3531C15.6879 19.6878 16.2451 19.6326 16.5076 19.2388L21.3335 12" stroke="#33363F" stroke-width="2.25" stroke-linecap="round"/>
</svg>
